<svg id="svg1144" height="512" viewBox="0 0 8.4666667 8.4666667" width="512" xmlns="http://www.w3.org/2000/svg" xmlns:dc="http://purl.org/dc/elements/1.1/" xmlns:cc="http://creativecommons.org/ns#" xmlns:rdf="http://www.w3.org/1999/02/22-rdf-syntax-ns#" xmlns:svg="http://www.w3.org/2000/svg"><g id="layer2"><path id="path3374" d="m4.2333333.52916685c-1.755057.000565-3.175 1.42601095-3.175 3.17603395 0 .887054.6307 1.873094 1.232483 2.626713.598973.750099 1.191773 1.291977 1.197343 1.297078.205055.203273.471472.3082441.745174.308508.273702-.0002639.540118-.105235.745174-.308508.0056-.0051.59837-.546979 1.197343-1.297078.601783-.7536189 1.232483-1.739659 1.232483-2.6267129 0-1.750023-1.419943-3.17546905-3.175-3.17603405z" fill="#549ad4" font-variant-ligatures="normal" font-variant-position="normal" font-variant-caps="normal" font-variant-numeric="normal" font-variant-alternates="normal" font-feature-settings="normal" text-indent="0" text-align="start" text-decoration-line="none" text-decoration-style="solid" text-decoration-color="#000000" text-transform="none" text-orientation="mixed" white-space="normal" shape-padding="0" isolation="auto" mix-blend-mode="normal" solid-color="#000000" solid-opacity="1" vector-effect="none"/><path id="path3370" d="m4.2333333 2.1171838c-.883468.000563-1.586983.714743-1.586983 1.588017 0 .873272.708679 1.585386 1.586983 1.585949.878304-.000563 1.586983-.712677 1.586983-1.585949 0-.873274-.703515-1.587454-1.586983-1.588017z" fill="#e4eff8" font-variant-ligatures="normal" font-variant-position="normal" font-variant-caps="normal" font-variant-numeric="normal" font-variant-alternates="normal" font-feature-settings="normal" text-indent="0" text-align="start" text-decoration-line="none" text-decoration-style="solid" text-decoration-color="#000000" text-transform="none" text-orientation="mixed" white-space="normal" shape-padding="0" isolation="auto" mix-blend-mode="normal" solid-color="#000000" solid-opacity="1" vector-effect="none"/><path id="path3378" d="m4.2333333.52916666c-.089287.00002873-.1771737.006176-.2645833.0134358 1.6307424.13543692 2.9104166 1.50160564 2.9104166 3.16259764 0 .887054-.6307 1.8730941-1.2324829 2.6267132-.598973.7500987-1.1917428 1.2919784-1.197343 1.2970782-.1376373.1364409-.304016.224341-.4805907.2702679.086491.022498.1745953.038154.2645833.03824.2737019-.0002638.540118-.1052354.7451741-.3085084.0056-.0051.59837-.5469795 1.197343-1.2970782.6017829-.7536191 1.2324828-1.7396592 1.2324828-2.6267132 0-1.7500229-1.419943-3.17546845-3.1749999-3.17603294z" fill="#3588cb" font-variant-ligatures="normal" font-variant-position="normal" font-variant-caps="normal" font-variant-numeric="normal" font-variant-alternates="normal" font-feature-settings="normal" text-indent="0" text-align="start" text-decoration-line="none" text-decoration-style="solid" text-decoration-color="#000000" text-transform="none" text-orientation="mixed" white-space="normal" shape-padding="0" isolation="auto" mix-blend-mode="normal" solid-color="#000000" solid-opacity="1" vector-effect="none"/><path id="path3383" d="m4.2333333 2.1171834c-.8834681.0005636-1.5869833.7147427-1.5869833 1.5880167 0 .3967549.1471102.759573.3891235 1.0381795-.0801055-.1984338-.1250569-.4146288-.1250569-.6413045 0-.9462127.7620167-1.7202151 1.7192749-1.7208251.2281934.0001454.4450231.0451724.6433717.1250569-.2776085-.2412789-.6398059-.3888686-1.0397299-.3891235z" fill="#c4dcf0" font-variant-ligatures="normal" font-variant-position="normal" font-variant-caps="normal" font-variant-numeric="normal" font-variant-alternates="normal" font-feature-settings="normal" text-indent="0" text-align="start" text-decoration-line="none" text-decoration-style="solid" text-decoration-color="#000000" text-transform="none" text-orientation="mixed" white-space="normal" shape-padding="0" isolation="auto" mix-blend-mode="normal" solid-color="#000000" solid-opacity="1" vector-effect="none"/></g></svg>